<?xml version="1.0" standalone="no"?>
<!DOCTYPE svg PUBLIC "-//W3C//DTD SVG 20010904//EN"
 "http://www.w3.org/TR/2001/REC-SVG-20010904/DTD/svg10.dtd">
<svg version="1.0" xmlns="http://www.w3.org/2000/svg"
 width="177.000000pt" height="177.000000pt" viewBox="0 0 177.000000 177.000000"
 preserveAspectRatio="xMidYMid meet">
<metadata>
Created by potrace 1.14, written by Peter Selinger 2001-2017
</metadata>
<g transform="translate(0.000000,177.000000) scale(0.100000,-0.100000)"
fill="#000000" stroke="none">
<path d="M496 1610 c-43 -14 -69 -40 -54 -57 9 -11 8 -13 -3 -11 -12 3 -14
-96 -16 -680 -2 -597 0 -682 12 -672 12 10 15 9 15 -4 0 -9 5 -16 10 -16 6 0
10 6 10 13 0 8 4 7 10 -3 13 -19 11 -82 11 660 -1 349 3 649 7 665 l8 30 132
3 c166 3 151 29 172 -293 6 -93 13 -189 16 -212 5 -42 6 -43 43 -43 l38 0 7
88 c7 88 9 113 26 301 6 57 15 117 22 133 l13 28 122 0 c86 0 124 -4 130 -12
4 -7 9 -308 10 -668 1 -360 2 -662 2 -672 1 -18 21 -18 44 0 12 10 16 10 20 0
3 -7 6 294 6 670 0 409 -4 682 -9 682 -5 0 -7 6 -4 13 7 18 -30 49 -60 51 -14
0 -26 5 -26 9 0 10 -225 7 -263 -4 -17 -5 -41 -18 -54 -31 l-23 -21 -23 21
c-13 13 -37 26 -54 31 -40 11 -260 12 -297 1z"/>
<path d="M559 1473 c-12 -13 -15 -129 -17 -637 -1 -342 0 -630 2 -641 6 -24
46 -29 46 -5 0 13 2 13 9 1 8 -12 11 -10 15 10 3 13 4 280 3 594 -2 314 -1
580 1 593 3 13 11 26 19 29 37 15 42 -11 83 -527 23 -278 43 -541 46 -585 8
-121 53 -188 115 -172 35 9 73 43 63 58 -4 7 -3 9 4 6 15 -10 17 11 62 578 52
655 49 629 78 633 17 3 22 -2 23 -20 1 -13 1 -287 0 -610 -1 -387 2 -589 9
-593 5 -3 10 0 10 7 0 9 3 9 10 -2 11 -17 32 -20 42 -5 4 5 8 289 8 630 0 479
-3 626 -13 645 -11 23 -19 25 -84 28 -66 3 -73 1 -86 -20 -11 -17 -28 -183
-62 -613 -26 -324 -51 -600 -56 -612 -5 -13 -13 -23 -19 -23 -22 0 -30 53 -50
310 -11 146 -27 344 -35 440 -7 96 -19 243 -25 325 -15 192 -17 195 -114 195
-56 0 -77 -4 -87 -17z"/>
</g>
</svg>
